<?xml version="1.0" encoding="UTF-8" standalone="no"?>
<!-- Created with Inkscape (http://www.inkscape.org/) -->

<svg
   width="177.17107mm"
   height="82.220268mm"
   viewBox="0 0 177.17107 82.220268"
   version="1.1"
   id="svg5"
   sodipodi:docname="boas-vindas.svg"
   inkscape:version="1.2 (1:1.2.1+202207142221+cd75a1ee6d)"
   xmlns:inkscape="http://www.inkscape.org/namespaces/inkscape"
   xmlns:sodipodi="http://sodipodi.sourceforge.net/DTD/sodipodi-0.dtd"
   xmlns="http://www.w3.org/2000/svg"
   xmlns:svg="http://www.w3.org/2000/svg">
  <sodipodi:namedview
     id="namedview7"
     pagecolor="#ffffff"
     bordercolor="#666666"
     borderopacity="1.0"
     inkscape:showpageshadow="2"
     inkscape:pageopacity="0.0"
     inkscape:pagecheckerboard="0"
     inkscape:deskcolor="#d1d1d1"
     inkscape:document-units="mm"
     showgrid="false"
     inkscape:zoom="0.873626"
     inkscape:cx="313.63535"
     inkscape:cy="205.4655"
     inkscape:window-width="1294"
     inkscape:window-height="704"
     inkscape:window-x="72"
     inkscape:window-y="27"
     inkscape:window-maximized="1"
     inkscape:current-layer="layer1" />
  <defs
     id="defs2">
    <filter
       style="color-interpolation-filters:sRGB"
       inkscape:label="Drop Shadow"
       id="filter2"
       x="-0.027092442"
       y="-0.058379779"
       width="1.0541849"
       height="1.1446677">
      <feFlood
         result="flood"
         in="SourceGraphic"
         flood-opacity="0.498039"
         flood-color="rgb(0,0,0)"
         id="feFlood1" />
      <feGaussianBlur
         result="blur"
         in="SourceGraphic"
         stdDeviation="2.000000"
         id="feGaussianBlur1" />
      <feOffset
         result="offset"
         in="blur"
         dx="0.000000"
         dy="2.294615"
         id="feOffset1" />
      <feComposite
         result="comp1"
         operator="in"
         in="flood"
         in2="offset"
         id="feComposite1" />
      <feComposite
         result="comp2"
         operator="over"
         in="SourceGraphic"
         in2="comp1"
         id="feComposite2" />
    </filter>
  </defs>
  <g
     inkscape:label="Layer 1"
     inkscape:groupmode="layer"
     id="layer1"
     transform="translate(305.40519,-161.10458)">
    <g
       aria-label="Boas-vindas"
       id="text113-3"
       style="font-size:60.0739px;line-height:1.25;font-family:aakar;-inkscape-font-specification:aakar;letter-spacing:0px;word-spacing:0px;stroke-width:1.25154;filter:url(#filter2)">
      <path
         d="m -291.76536,161.10458 q 0.41066,0 0.70399,0.38133 0.29333,0.352 0.46933,0.90933 0.20533,0.52799 0.29333,1.14398 0.088,0.58666 0.088,1.05599 v 1.08532 q 1.64264,-0.58666 3.22662,-0.85066 1.58398,-0.264 3.37329,-0.29333 1.61331,0.0587 3.28529,0.46933 1.70131,0.38133 3.05063,1.43731 1.37865,1.05599 2.2293,2.9333 0.87999,1.87731 0.87999,4.83994 -0.20533,2.55196 -1.11465,4.8106 -0.87999,2.25864 -2.19997,4.22395 -1.31998,1.93597 -2.9333,3.57862 -1.61331,1.64264 -3.22662,2.96263 l 0.088,0.23466 q 0.79199,-0.14666 1.49598,-0.23466 0.73332,-0.088 1.43731,-0.088 3.1093,0 5.27994,1.20265 2.19997,1.20265 3.60795,3.07996 1.40798,1.87731 2.11197,4.16528 0.70399,2.25864 0.82132,4.39994 0,1.20266 -0.088,2.28798 -0.088,1.08532 -0.29333,2.1413 -0.20533,1.02666 -0.49866,2.08264 -0.29333,1.02666 -0.73333,2.14131 -1.52531,3.63728 -3.78395,6.45325 -2.25864,2.81596 -5.01594,4.8986 -2.75729,2.08264 -5.86659,3.49062 -3.10929,1.40799 -6.36525,2.25864 -3.25596,0.87999 -6.54125,1.23199 -3.25596,0.38132 -6.30658,0.38132 h -1.11466 q 0.0587,-0.17599 0.64533,-0.32266 0.55732,-0.11733 1.37865,-0.23466 0.82132,-0.11733 1.75997,-0.23467 0.93866,-0.11733 1.73065,-0.20533 l 1.43731,-0.17599 1.26132,-3.1973 v 0.0293 q 0.87999,-3.16796 1.49598,-6.86392 0.64533,-3.69595 1.05599,-7.5679 0.43999,-3.87195 0.73332,-7.71457 0.29333,-3.84261 0.528,-7.27457 -0.99732,0.49866 -1.78931,0.49866 0,-0.41066 0.52799,-0.93865 0.52799,-0.55733 1.34931,-1.23199 0.44,-6.57058 0.73333,-13.14116 0.32266,-6.59992 0.55732,-13.19984 -1.14398,0.67466 -2.28797,1.58398 -1.14398,0.90933 -2.19997,1.99465 -1.05598,1.08532 -1.96531,2.3173 -0.90932,1.20265 -1.55464,2.46397 -0.0587,0.23466 -0.32267,0.82132 -0.23466,0.58666 -0.55732,1.20265 -0.32266,0.61599 -0.64533,1.14399 -0.35199,0.52799 -0.55732,0.61599 -0.20533,-0.176 -0.23467,-0.38133 -0.0587,-0.23466 -0.0587,-0.55733 0,-0.46932 0.11733,-0.99732 0.088,-0.55732 0.23466,-1.02665 0.14667,-0.49866 0.29333,-0.87999 0.11733,-0.41066 0.20533,-0.55732 0.73333,-1.61332 1.78931,-3.0213 1.05599,-1.40798 2.28797,-2.5813 1.26132,-1.20265 2.63997,-2.17064 1.40798,-0.96799 2.8453,-1.67198 v -0.93865 q 0,-0.352 0,-0.70399 0,-0.352 0.0587,-0.67466 v 0.0293 q 0.0293,-0.176 0.0293,-0.32266 0,-0.176 0,-0.32266 v -0.29333 l -0.0587,-1.73065 q 0,-0.0587 -0.0587,-0.23466 -0.0293,-0.088 -0.0293,-0.14667 z m 2.6693,32.50092 h 0.0293 q -0.67466,0.44 -1.37865,0.87999 -0.67466,0.41066 -1.31998,0.79199 -0.14667,2.22931 -0.38133,5.10394 -0.23466,2.87463 -0.58666,6.04259 -0.32266,3.16795 -0.79199,6.42391 -0.46933,3.22663 -1.11465,6.18926 -0.61599,2.99196 -1.43732,5.48526 -0.82132,2.52263 -1.84797,4.19461 1.61331,-0.26399 3.07996,-0.58666 1.49598,-0.29333 2.90396,-0.70399 1.43732,-0.38133 2.81596,-0.87999 1.37865,-0.49866 2.81597,-1.14398 2.8453,-1.31998 5.66126,-3.40262 2.8453,-2.08264 5.10393,-4.89861 2.28798,-2.78663 3.69596,-6.30658 1.43731,-3.51996 1.43731,-7.71457 0,-2.90396 -0.85065,-5.13327 -0.82133,-2.2293 -2.25864,-3.72529 -1.40798,-1.49598 -3.28529,-2.25863 -1.84798,-0.79199 -3.90129,-0.79199 -0.99732,0 -2.08264,0.20533 -1.05598,0.176 -2.11197,0.49866 -1.05599,0.32266 -2.08264,0.73332 -0.99732,0.41066 -1.87731,0.85066 z m -2.31731,-0.41066 q 0.96799,-0.64532 1.99465,-1.14398 1.02665,-0.49866 2.1413,-0.93866 l -0.0293,0.0293 q 1.93597,-1.29065 3.98928,-3.10929 2.05331,-1.81864 3.72529,-4.07728 1.70131,-2.25864 2.78663,-4.8986 1.11465,-2.63997 1.11465,-5.57327 0,-2.34663 -0.79199,-3.81328 -0.79199,-1.46665 -1.99464,-2.25864 -1.20265,-0.82132 -2.61063,-1.11465 -1.37865,-0.29333 -2.61064,-0.32266 -1.84797,0.0293 -3.43195,0.35199 -1.55465,0.29333 -3.16796,0.96799 -0.44,12.96517 -1.31999,25.78367 z"
         style="font-family:'Stay Classy SLDT';-inkscape-font-specification:'Stay Classy SLDT';fill:#ffffff"
         id="path194" />
      <path
         d="m -255.89115,205.28002 q 0.11733,-0.85066 0.17599,-1.73064 0.088,-0.87999 0.088,-1.78932 0,-0.35199 -0.0587,-1.05598 -0.0587,-0.73333 -0.264,-1.49598 -0.20533,-0.79199 -0.58666,-1.40798 -0.38133,-0.64533 -1.02665,-0.82133 -0.93866,0.0293 -1.55465,0.64533 -0.61599,0.58666 -0.99732,1.46665 -0.352,0.87998 -0.49866,1.93597 -0.14667,1.05599 -0.14667,1.96531 v 0.52799 q 0,0.11733 0.088,0.70399 0.088,0.55733 0.20533,1.26132 0.11734,0.67466 0.20534,1.26132 0.11733,0.55732 0.17599,0.67466 -0.26399,-0.0587 -0.52799,-0.55733 -0.264,-0.52799 -0.46933,-1.17332 -0.176,-0.67466 -0.32266,-1.29065 -0.14666,-0.61599 -0.176,-0.87999 -0.0587,-0.41066 -0.088,-0.79199 0,-0.41066 0,-0.79199 0,-1.26131 0.23467,-2.4053 0.26399,-1.17332 0.76265,-2.05331 0.528,-0.87999 1.26132,-1.40798 0.76266,-0.52799 1.78931,-0.52799 0.99732,0.0587 1.61331,0.73332 0.64533,0.67466 1.02666,1.67198 0.38133,0.96799 0.52799,2.14131 0.14667,1.14398 0.14667,2.19997 0,0.76266 -0.14667,2.02397 -0.14666,1.23199 -0.46933,2.69863 -0.29333,1.43732 -0.82132,2.9333 -0.49866,1.49598 -1.23198,2.72797 -0.73333,1.23198 -1.73065,2.0533 -0.99732,0.85066 -2.25864,0.96799 -1.20265,-0.0293 -1.9653,-0.85066 -0.76266,-0.82132 -1.20266,-1.99464 -0.41066,-1.17332 -0.55732,-2.46397 -0.176,-1.31998 -0.176,-2.34663 0,-1.49598 0.23466,-2.9333 0.20534,-1.43731 0.67466,-2.7573 0.088,-0.20533 0.29333,-0.61599 0.20533,-0.41066 0.46933,-0.82132 0.264,-0.44 0.55733,-0.73332 0.32266,-0.32267 0.61599,-0.32267 0.26399,0 0.29333,0.14667 0.0587,0.11733 0.0587,0.32266 0,0.49866 -0.23466,1.20265 -0.23466,0.67466 -0.43999,1.20265 l -0.088,0.29333 q -0.58666,1.17332 -0.76266,2.69863 -0.176,1.49599 -0.176,2.8453 0,0.23466 0.0293,0.70399 0.0293,0.46933 0.11734,1.05599 0.088,0.58666 0.23466,1.20265 0.14666,0.61599 0.38133,1.14399 0.264,0.49866 0.58666,0.85065 0.35199,0.352 0.85065,0.38133 1.08532,-0.14667 1.93598,-1.05599 0.87999,-0.93865 1.52531,-2.2293 0.67466,-1.29065 1.11465,-2.72797 0.46933,-1.43731 0.704,-2.5813 z"
         style="font-family:'Stay Classy SLDT';-inkscape-font-specification:'Stay Classy SLDT';fill:#ffffff"
         id="path196" />
      <path
         d="m -244.97929,200.11742 0.088,0.088 q -0.26399,0 -0.55732,-0.23467 h 0.0587 l -0.20533,-0.11733 v 0.0293 q -0.23466,-0.088 -0.41066,-0.14667 -0.14666,-0.0587 -0.26399,-0.0587 -0.704,0.14667 -1.37865,0.85066 -0.64533,0.67466 -1.26132,1.70131 -0.58666,1.02666 -1.08532,2.28797 -0.49866,1.23199 -0.87999,2.4933 -0.35199,1.23199 -0.55733,2.37597 -0.20533,1.11466 -0.20533,1.87731 0,0.64533 0.14667,0.79199 0.14666,0.14667 0.20533,0.14667 0.176,0 0.49866,-0.352 0.352,-0.38133 0.76266,-0.96799 0.43999,-0.58665 0.87999,-1.29065 0.43999,-0.70399 0.85065,-1.37864 0.41066,-0.67466 0.70399,-1.20266 0.32266,-0.55732 0.46933,-0.82132 l 1.73064,-3.22662 q 0.76266,-1.43732 1.55465,-2.8453 0.79199,-1.43732 1.58398,-2.72797 h -0.0293 q 0.0587,-0.20533 0.35199,-0.29333 0.20533,0 0.352,0.14667 0.14666,0.11733 0.23466,0.29333 0.088,0.176 0.11733,0.35199 0.0587,0.14667 0.0587,0.23467 v 0.32266 l -0.49866,2.05331 q -0.67466,2.7573 -1.26132,5.57326 -0.58666,2.81596 -0.55732,5.89592 0,0.23467 0.0293,0.55733 0.0293,0.29333 0.088,0.55733 0.088,0.26399 0.20533,0.43999 0.11733,0.176 0.32266,0.176 h 0.14667 q 0.52799,-0.20533 1.11465,-1.05599 0.58666,-0.85065 1.14398,-2.0533 0.55733,-1.20266 1.05599,-2.61064 0.52799,-1.43731 0.93866,-2.78663 0.43999,-1.37865 0.76265,-2.52263 0.32266,-1.17332 0.46933,-1.87731 0,-0.20533 -0.0293,-0.528 0,-0.32266 0,-0.52799 0.088,-1.43731 0.41066,-2.8453 0.32266,-1.43731 0.93865,-2.55196 0.64533,-1.11466 1.58398,-1.81865 0.96799,-0.70399 2.28797,-0.70399 0.70399,0.0293 1.29065,0.44 0.58666,0.41066 0.99732,1.05598 0.44,0.64533 0.64533,1.49598 0.23466,0.82133 0.23466,1.70132 0,0.52799 -0.088,1.14398 -0.088,0.58666 -0.35199,0.87999 -0.14667,-0.23466 -0.23467,-0.52799 -0.088,-0.29333 -0.17599,-0.616 l -0.352,-1.26131 q -0.14666,-0.38133 -0.32266,-0.79199 -0.176,-0.41066 -0.44,-0.73333 -0.23466,-0.32266 -0.55732,-0.52799 -0.32266,-0.20533 -0.73333,-0.20533 -0.93865,0 -1.61331,0.55733 -0.64532,0.52799 -1.05599,1.40798 -0.41066,0.85065 -0.61599,1.90664 -0.17599,1.02665 -0.20533,2.02397 0,1.61332 0.176,3.34396 0.20533,1.70131 0.52799,3.43196 0.352,1.73064 0.76266,3.49062 0.43999,1.73064 0.87999,3.37329 0.93865,-1.31998 2.08264,-2.72797 1.17332,-1.40798 2.43463,-2.66929 1.26132,-1.29066 2.5813,-2.34664 1.34932,-1.05599 2.6693,-1.67198 0.088,-0.0293 0.176,-0.0587 0.11733,-0.0587 0.264,-0.0587 0.0587,0 0.11733,0.088 0.0587,0.088 0.11733,0.17599 0,0.14667 -0.35199,0.352 h 0.0293 l -0.088,0.0587 q -1.37865,0.87998 -2.69863,2.08264 -1.29065,1.20265 -2.52264,2.5813 -1.20265,1.34931 -2.3173,2.81596 -1.11465,1.46665 -2.08264,2.90396 0.46933,1.78931 0.90932,3.60796 0.44,1.84797 0.79199,3.78395 0.352,1.96531 0.55733,4.04795 0.23466,2.08264 0.23466,4.37061 0,1.29065 -0.176,2.69863 -0.17599,1.43731 -0.55732,2.8453 -0.38133,1.40798 -0.99732,2.6693 -0.58666,1.29065 -1.40798,2.25863 -0.79199,0.96799 -1.84798,1.52532 -1.02665,0.58666 -2.3173,0.58666 -1.43732,0 -2.52264,-0.87999 -1.05599,-0.85066 -1.75998,-2.4053 -0.32266,-0.82133 -0.46932,-1.84798 -0.14667,-1.02665 -0.20533,-1.93598 0,-1.78931 0.35199,-3.69595 0.38133,-1.90664 0.99732,-3.84262 0.64533,-1.93597 1.43732,-3.81328 0.82132,-1.87731 1.73064,-3.63729 0.90932,-1.75998 1.84798,-3.31462 0.93865,-1.55465 1.78931,-2.81597 l -0.32267,-1.14398 q -0.67465,-2.4933 -1.31998,-5.1626 -0.61599,-2.6693 -0.93865,-5.3386 -0.0587,0 -0.088,-0.0293 -0.176,0.82132 -0.46933,1.9653 -0.29333,1.11466 -0.67466,2.37597 -0.38133,1.23199 -0.85065,2.46397 -0.46933,1.23199 -0.99732,2.28797 -0.528,1.02666 -1.11466,1.73065 -0.55732,0.73332 -1.14398,0.93865 l -0.41066,0.0587 q -0.55733,0 -0.90932,-0.352 -0.32267,-0.35199 -0.528,-0.85065 -0.176,-0.528 -0.26399,-1.11466 -0.0587,-0.58665 -0.088,-1.08531 0,-2.31731 0.32266,-4.57595 0.32266,-2.28797 0.82132,-4.57594 l -0.088,-0.0587 -2.61063,4.86927 q -0.61599,1.17332 -1.31998,2.28797 -0.67466,1.11465 -1.37865,2.19997 -0.20533,0.29333 -0.46933,0.67466 -0.23466,0.35199 -0.52799,0.67466 -0.29333,0.29333 -0.64533,0.52799 -0.32266,0.23466 -0.67466,0.264 -0.49866,0 -0.82132,-0.29333 -0.32266,-0.32267 -0.52799,-0.76266 -0.23467,-0.46933 -0.32266,-1.02665 -0.088,-0.55733 -0.088,-1.08532 0,-1.11466 0.26399,-2.52264 0.264,-1.43731 0.70399,-2.87463 0.44,-1.46665 1.02666,-2.84529 0.61599,-1.37865 1.29065,-2.46397 0.67466,-1.08532 1.37865,-1.73065 0.73332,-0.67466 1.43731,-0.67466 0.29333,0 0.64533,0.176 0.35199,0.14667 0.67466,0.44 0.32266,0.29333 0.52799,0.70399 0.23466,0.38133 0.23466,0.85065 l -0.0587,0.088 z m 3.81328,36.0502 q 0.0293,1.11466 0.29333,2.08264 0.264,0.96799 0.70399,1.67198 0.46933,0.70399 1.08532,1.11466 0.61599,0.43999 1.40798,0.46932 1.05599,0 1.90664,-0.52799 0.85066,-0.49866 1.49599,-1.34932 0.64532,-0.85065 1.08531,-1.9653 0.46933,-1.11466 0.73333,-2.28797 0.29333,-1.17332 0.41066,-2.34664 0.14666,-1.14399 0.14666,-2.11197 0,-3.72529 -0.64532,-7.27458 -0.64533,-3.54929 -1.52531,-6.92258 -1.08532,1.73065 -2.34664,4.04795 -1.23198,2.34664 -2.28797,4.89861 -1.05599,2.5813 -1.75998,5.22126 -0.70399,2.63997 -0.70399,4.95727 z"
         style="font-family:'Stay Classy SLDT';-inkscape-font-specification:'Stay Classy SLDT';fill:#ffffff"
         id="path198" />
      <path
         d="m -211.71572,195.62948 q -0.11733,0.0293 -0.38133,0.0587 -0.23466,0 -0.49866,0 -0.23466,0 -0.43999,0 -0.20533,0 -0.23467,0 h -1.20265 q -2.11197,0 -4.48794,0.0293 -2.34664,0.0293 -4.45861,0.088 v -0.35199 q 0,-0.41066 0.0293,-0.79199 0.0293,-0.41066 0.20533,-0.64533 0.11734,0 0.44,0 0.32266,0 0.76266,0.0293 0.43999,0 0.93865,0 0.52799,0 1.05599,0 1.20265,0.0293 2.6693,0.0293 0.32266,0 0.52799,0.0293 0.23466,0.0293 0.43999,0.0293 0.0587,0 0.49866,0.0293 0.44,0 1.05599,0.0587 0.64533,0.0587 1.34932,0.14667 0.73332,0.088 1.31998,0.20533 0.61599,0.11733 0.99732,0.32266 0.41066,0.176 0.41066,0.41066 0,0.20533 -0.32266,0.264 -0.29333,0.0587 -0.352,0.0587 z"
         style="font-family:'Stay Classy SLDT';-inkscape-font-specification:'Stay Classy SLDT';fill:#ffffff"
         id="path200" />
      <path
         d="m -196.72658,197.24279 q -0.67466,1.93597 -1.17332,3.93062 -0.46932,1.9653 -1.11465,3.90128 l 0.0293,-0.0293 q -0.49866,1.84797 -1.02665,3.72528 -0.52799,1.87731 -1.11465,3.66662 -0.176,0.49866 -0.44,1.17332 -0.23466,0.64533 -0.58666,1.23198 -0.35199,0.58666 -0.79199,1.02666 -0.43999,0.46933 -0.93865,0.58666 -0.73332,-0.0293 -1.29065,-0.49866 -0.52799,-0.46933 -0.90932,-1.23199 -0.352,-0.76265 -0.58666,-1.75998 -0.23467,-0.99732 -0.38133,-2.02397 -0.11733,-1.05599 -0.176,-2.08264 -0.0293,-1.05599 -0.0293,-1.93597 0,-0.76266 0,-1.84798 0.0293,-1.08532 0.088,-2.22931 0.0587,-1.17331 0.14666,-2.3173 0.11733,-1.14398 0.264,-2.05331 0.14666,-0.90932 0.35199,-1.46664 0.20534,-0.55733 0.49867,-0.55733 0.38132,0 0.55732,0.38133 0.20533,0.38133 0.23466,0.73332 0,0.176 0,0.44 0,0.26399 -0.0587,0.46932 v -0.0293 q -0.23466,2.25864 -0.38133,4.57594 -0.11733,2.28797 -0.11733,4.60528 0,0.46932 0,1.14398 0.0293,0.67466 0.088,1.43732 0.0587,0.76265 0.176,1.52531 0.11733,0.73332 0.29332,1.34932 0.176,0.61599 0.44,1.02665 0.264,0.41066 0.61599,0.43999 0.23467,-0.26399 0.46933,-0.64532 0.264,-0.41066 0.46933,-0.79199 0.20533,-0.41066 0.38132,-0.79199 0.176,-0.41066 0.264,-0.67466 0.38133,-0.99732 0.70399,-2.08264 0.32266,-1.11465 0.64533,-2.1413 l 0.46932,-1.55465 0.49866,-1.93598 q 0.55733,-1.78931 1.14399,-3.66662 0.61599,-1.87731 1.31998,-3.54928 0.176,-0.44 0.49866,-1.05599 0.352,-0.61599 0.76266,-1.20265 0.43999,-0.58666 0.93866,-0.99732 0.52799,-0.41066 1.11465,-0.41066 l -0.67466,0.73332 q -0.52799,0.76266 -0.93866,1.67198 -0.41066,0.90932 -0.73332,1.81864 z"
         style="font-family:'Stay Classy SLDT';-inkscape-font-specification:'Stay Classy SLDT';fill:#ffffff"
         id="path202" />
      <path
         d="m -186.51871,213.61058 q -0.17599,-0.14666 -0.29332,-0.43999 -0.11734,-0.29333 -0.176,-0.58666 0.0587,-2.43464 0.14666,-4.75194 0.11733,-2.34664 0.264,-4.69328 -0.0587,0 -0.088,-0.0293 -0.14666,0.64533 -0.43999,1.67198 -0.264,1.02665 -0.64533,2.2293 -0.38133,1.17332 -0.87999,2.40531 -0.46933,1.20265 -0.99732,2.19997 -0.52799,0.96799 -1.14398,1.58398 -0.58666,0.61599 -1.20266,0.61599 -0.85065,0 -1.31998,-0.67466 -0.46933,-0.67466 -0.70399,-1.64264 -0.23466,-0.96799 -0.29333,-2.02398 -0.0587,-1.05598 -0.0587,-1.84797 0,-0.76266 0.0293,-1.90665 0.0587,-1.14398 0.11733,-2.37597 0.088,-1.26131 0.23466,-2.4933 0.14667,-1.26131 0.32267,-2.25863 0.20533,-0.99733 0.46932,-1.61332 0.264,-0.61599 0.58666,-0.61599 0.49866,0 0.64533,0.44 0.176,0.43999 0.176,0.85065 0,0.088 0,0.264 0,0.14666 -0.0293,0.26399 -0.41066,2.34664 -0.70399,4.95727 -0.29333,2.5813 -0.29333,4.95727 0,0.29333 0,0.55733 0,0.264 0.0293,0.52799 v 0.20533 q 0,0.264 0,0.58666 0.0293,0.32267 0.088,0.67466 0.0587,0.32266 0.176,0.67466 0.14667,0.32266 0.38133,0.58666 0.41066,-0.264 0.82132,-0.87999 0.41066,-0.61599 0.79199,-1.40798 0.41066,-0.82133 0.76266,-1.73065 0.38133,-0.93865 0.67466,-1.78931 0.32266,-0.87999 0.55732,-1.64264 0.264,-0.79199 0.44,-1.29065 l 0.176,-0.82133 q 0.14666,-0.55732 0.35199,-1.31998 0.20533,-0.76266 0.44,-1.58398 0.26399,-0.82132 0.52799,-1.61331 0.264,-0.82132 0.46933,-1.43732 0.23466,-0.64532 0.41066,-1.05598 0.176,-0.41066 0.26399,-0.44 0.23467,0.0587 0.41067,0.64533 0.20533,0.58666 0.20533,1.31998 0,0.52799 -0.0293,0.99732 -0.0293,0.46933 -0.088,0.70399 -0.088,2.37597 -0.26399,4.57594 -0.176,2.19998 -0.264,4.48795 0.0293,0 0.0293,0.0293 0,0.0293 0.0587,0.0293 0.32266,-1.29065 0.73332,-2.61063 0.41067,-1.34932 0.79199,-2.4053 0.352,-1.02666 0.79199,-2.28797 0.46933,-1.26132 1.02666,-2.34664 0.58666,-1.11465 1.29065,-1.84798 0.70399,-0.76265 1.58398,-0.76265 0.61599,0.088 0.96798,0.49866 0.38133,0.38132 0.58666,0.93865 0.20533,0.55733 0.29333,1.23199 0.088,0.64532 0.11734,1.23198 0,1.08532 -0.088,2.17064 -0.0587,1.08532 -0.14667,2.1413 l -0.23466,1.99465 q -0.176,1.40798 -0.38133,2.87463 -0.20533,1.46664 -0.176,3.02129 0,0.32266 0,0.70399 0,0.352 0.0587,0.67466 0.0587,0.29333 0.14666,0.52799 0.11733,0.20533 0.352,0.20533 0.41066,0 0.82132,-0.43999 0.41066,-0.44 0.76266,-1.08532 0.38133,-0.64533 0.70399,-1.37865 0.32266,-0.76266 0.55732,-1.40798 v 0.0293 l 0.41067,-1.26132 q 0.20533,-0.67465 0.43999,-1.43731 0.23466,-0.79199 0.41066,-1.46665 0.176,-0.67466 0.29333,-1.17332 0.14667,-0.49866 0.176,-0.61599 0.32266,0.264 0.32266,0.61599 0,0.32267 -0.176,1.23199 -0.14666,0.90932 -0.35199,1.87731 -0.20533,0.96798 -0.44,1.78931 -0.20533,0.79199 -0.32266,0.90932 l -0.26399,0.70399 q -0.23467,0.67466 -0.55733,1.46665 -0.29333,0.79199 -0.70399,1.49598 -0.38133,0.70399 -0.87999,1.14398 -0.49866,0.46933 -1.11465,0.46933 -0.528,0 -0.85066,-0.41066 -0.32266,-0.38133 -0.52799,-0.93866 -0.20533,-0.58665 -0.29333,-1.23198 -0.0587,-0.64532 -0.0587,-1.14398 0,-0.67466 0.0293,-1.37865 0.0293,-0.73333 0.11733,-1.46665 l 0.35199,-3.37329 q 0.14667,-1.29065 0.29333,-2.69863 0.176,-1.43732 0.14667,-2.8453 0,-0.264 -0.0293,-0.64533 0,-0.41066 -0.088,-0.76265 -0.088,-0.38133 -0.23467,-0.64533 -0.14666,-0.26399 -0.41066,-0.32266 -0.52799,0 -1.05599,0.67466 -0.52799,0.67466 -0.99732,1.64264 -0.43999,0.96799 -0.82132,1.99464 -0.352,1.02666 -0.58666,1.73065 l -0.14666,0.35199 q -0.264,0.616 -0.41067,1.31999 -0.11733,0.70399 -0.35199,1.37865 l -0.32266,1.14398 q -0.23467,0.79199 -0.55733,1.87731 -0.29333,1.05599 -0.64532,2.02398 -0.32267,0.96798 -0.616,1.64264 -0.29333,0.67466 -0.49866,0.67466 -0.20533,0 -0.32266,-0.088 z m -4.57594,-23.87703 q 0,0.352 -0.26399,0.82132 -0.23467,0.44 -0.46933,0.49867 -0.176,-0.088 -0.264,-0.29333 -0.088,-0.20534 -0.14666,-0.44 -0.0293,-0.264 -0.0293,-0.49866 0,-0.264 0,-0.43999 0,-0.38133 0.0587,-0.85066 0.088,-0.46933 0.20533,-0.93865 0.11733,-0.46933 0.23467,-0.90933 0.14666,-0.43999 0.26399,-0.76265 0.38133,0.088 0.55733,0.23466 0.20533,0.11733 0.35199,0.264 v -0.0293 q 0.20533,0.20534 0.44,0.32267 -0.38133,0.85065 -0.58666,1.49598 -0.176,0.64532 -0.352,1.29065 z"
         style="font-family:'Stay Classy SLDT';-inkscape-font-specification:'Stay Classy SLDT';fill:#ffffff"
         id="path204" />
      <path
         d="m -162.11369,230.41837 0.0293,0.0587 0.35199,0.64533 -0.20533,0.14666 q -0.85065,-0.90932 -1.40798,-2.19997 -0.55733,-1.26132 -0.93866,-2.69863 -0.35199,-1.43732 -0.55732,-2.9333 -0.20533,-1.49598 -0.352,-2.81596 l -0.11733,-2.34664 q -0.0587,-1.40798 -0.14666,-2.99196 -0.0587,-1.55465 -0.0587,-3.13863 0,-0.46933 0,-0.82132 0,-0.352 0,-0.70399 0,-0.352 0,-0.70399 0.0293,-0.38133 0.0587,-0.87999 -0.528,0.93865 -1.17332,1.96531 -0.64533,1.02665 -1.37865,1.87731 -0.73332,0.85065 -1.58398,1.40798 -0.82132,0.55732 -1.70131,0.55732 -0.90932,0 -1.49598,-0.49866 -0.55733,-0.49866 -0.90932,-1.26131 -0.32267,-0.76266 -0.44,-1.67198 -0.11733,-0.90932 -0.11733,-1.75998 0,-1.75998 0.29333,-3.40262 0.32266,-1.64265 0.82132,-3.37329 0.38133,-1.26132 0.96799,-2.69863 0.61599,-1.43732 1.43731,-2.63997 0.82133,-1.20265 1.84798,-1.99464 1.02665,-0.82132 2.28797,-0.82132 0.67466,0.088 1.29065,0.49866 l 0.55733,0.58665 q 0.088,-1.20265 0.26399,-3.19729 0.20533,-2.02397 0.49866,-4.51727 0.29333,-2.4933 0.704,-5.2506 0.41066,-2.78663 0.90932,-5.5146 0.52799,-2.72796 1.14398,-5.19193 0.61599,-2.4933 1.34932,-4.37061 0.76266,-1.90665 1.61331,-3.0213 0.85066,-1.11465 1.84798,-1.11465 0.79199,0 1.20265,0.55733 0.43999,0.55732 0.64532,1.34931 0.23467,0.76266 0.264,1.61331 0.0587,0.82133 0.0587,1.40799 0,1.9653 -0.29333,4.31194 -0.264,2.34664 -0.76266,4.95727 -0.49866,2.5813 -1.17332,5.30927 -0.64532,2.72796 -1.40798,5.45593 -0.76266,2.69863 -1.61331,5.30926 -0.82133,2.5813 -1.67198,4.89861 -0.82132,2.28797 -1.61331,4.25328 -0.76266,1.9653 -1.43732,3.37329 v -0.0587 q -0.176,3.84262 -0.176,7.68523 0,1.58398 0,3.16796 0.0293,1.61332 0.14667,3.1973 0.0587,1.11465 0.176,2.34663 0.11733,1.26132 0.32266,2.4933 0.23466,1.26132 0.55732,2.46397 0.32267,1.20265 0.82133,2.22931 l 0.0293,0.088 z m -1.64264,-29.24496 q 0.73332,-1.90665 1.61331,-4.45861 0.87999,-2.5813 1.75998,-5.5146 0.90932,-2.96263 1.73064,-6.07192 0.85066,-3.13863 1.49598,-6.15992 0.64533,-3.0213 1.02666,-5.74926 0.41066,-2.72797 0.41066,-4.86927 0,-0.41067 0,-0.90933 0,-0.49866 -0.088,-0.93865 -0.0587,-0.44 -0.23466,-0.73332 -0.176,-0.29333 -0.49866,-0.29333 h -0.11734 l -0.20533,0.11733 v -0.0293 q -0.79199,0.76266 -1.49598,2.40531 -0.70399,1.64264 -1.31998,3.87195 -0.61599,2.2293 -1.14399,4.8986 -0.52799,2.6693 -0.96798,5.48526 -0.44,2.78664 -0.79199,5.6026 -0.352,2.81596 -0.616,5.3386 -0.26399,2.4933 -0.43999,4.57594 -0.176,2.05331 -0.264,3.37329 z m -2.9333,-4.98661 q -0.85065,0.20533 -1.64264,0.99732 -0.76266,0.76266 -1.43732,1.90665 -0.64532,1.14398 -1.20265,2.55196 -0.52799,1.40799 -0.90932,2.87463 -0.352,1.43732 -0.55733,2.8453 -0.20533,1.40798 -0.20533,2.55197 0,0.41066 0.0587,0.93865 0.0587,0.49866 0.20533,0.93866 0.176,0.43999 0.43999,0.76265 0.29333,0.29333 0.76266,0.29333 0.82132,0 1.67198,-0.87999 0.87999,-0.90932 1.64264,-2.1413 0.79199,-1.23199 1.40799,-2.4933 0.61599,-1.29065 0.93865,-2.08264 l 0.20533,-0.23467 q 0.0587,-2.02397 0.20533,-4.22394 0.14667,-2.19997 0.29333,-4.22395 l -0.90932,-0.35199 h 0.0293 q -0.35199,-0.088 -0.61599,-0.088 -0.0587,0 -0.14666,0.0293 -0.088,0.0293 -0.20533,0.0293 z"
         style="font-family:'Stay Classy SLDT';-inkscape-font-specification:'Stay Classy SLDT';fill:#ffffff"
         id="path206" />
      <path
         d="m -150.40984,200.11742 0.088,0.088 q -0.26399,0 -0.55732,-0.23467 h 0.0587 l -0.20533,-0.11733 v 0.0293 q -0.23466,-0.088 -0.41066,-0.14667 -0.14666,-0.0587 -0.26399,-0.0587 -0.704,0.14667 -1.37865,0.85066 -0.64533,0.67466 -1.26132,1.70131 -0.58666,1.02666 -1.08532,2.28797 -0.49866,1.23199 -0.87999,2.4933 -0.35199,1.23199 -0.55732,2.37597 -0.20534,1.11466 -0.20534,1.87731 0,0.64533 0.14667,0.79199 0.14666,0.14667 0.20533,0.14667 0.176,0 0.49866,-0.352 0.352,-0.38133 0.76266,-0.96799 0.43999,-0.58665 0.87999,-1.29065 0.43999,-0.70399 0.85065,-1.37864 0.41066,-0.67466 0.70399,-1.20266 0.32267,-0.55732 0.46933,-0.82132 l 1.73064,-3.22662 q 0.76266,-1.43732 1.55465,-2.8453 0.79199,-1.43732 1.58398,-2.72797 h -0.0293 q 0.0587,-0.20533 0.35199,-0.29333 0.20533,0 0.352,0.14667 0.14666,0.11733 0.23466,0.29333 0.088,0.176 0.11733,0.35199 0.0587,0.14667 0.0587,0.23467 v 0.32266 l -0.49866,2.05331 q -0.67466,2.7573 -1.26132,5.57326 -0.58666,2.81596 -0.55732,5.89592 0,0.23467 0.0293,0.55733 0.0293,0.29333 0.088,0.55733 0.088,0.26399 0.20533,0.43999 0.11733,0.176 0.32266,0.176 h 0.14667 q 0.52799,-0.20533 1.11465,-1.05599 0.58666,-0.85065 1.14398,-2.0533 0.55733,-1.20266 1.05599,-2.61064 0.52799,-1.43731 0.93866,-2.78663 0.43999,-1.37865 0.76265,-2.52263 0.32267,-1.17332 0.46933,-1.87731 0,-0.20533 -0.0293,-0.528 0,-0.32266 0,-0.52799 0.088,-1.43731 0.41066,-2.8453 0.32266,-1.43731 0.93865,-2.55196 0.64533,-1.11466 1.58398,-1.81865 0.96799,-0.70399 2.28797,-0.70399 0.70399,0.0293 1.29065,0.44 0.58666,0.41066 0.99732,1.05598 0.44,0.64533 0.64533,1.49598 0.23466,0.82133 0.23466,1.70132 0,0.52799 -0.088,1.14398 -0.088,0.58666 -0.35199,0.87999 -0.14667,-0.23466 -0.23467,-0.52799 -0.088,-0.29333 -0.17599,-0.616 l -0.352,-1.26131 q -0.14666,-0.38133 -0.32266,-0.79199 -0.176,-0.41066 -0.44,-0.73333 -0.23466,-0.32266 -0.55732,-0.52799 -0.32266,-0.20533 -0.73333,-0.20533 -0.93865,0 -1.61331,0.55733 -0.64532,0.52799 -1.05598,1.40798 -0.41067,0.85065 -0.616,1.90664 -0.17599,1.02665 -0.20533,2.02397 0,1.61332 0.176,3.34396 0.20533,1.70131 0.52799,3.43196 0.352,1.73064 0.76266,3.49062 0.43999,1.73064 0.87999,3.37329 0.93865,-1.31998 2.08264,-2.72797 1.17332,-1.40798 2.43463,-2.66929 1.26132,-1.29066 2.58131,-2.34664 1.34931,-1.05599 2.66929,-1.67198 0.088,-0.0293 0.176,-0.0587 0.11733,-0.0587 0.264,-0.0587 0.0587,0 0.11733,0.088 0.0587,0.088 0.11733,0.17599 0,0.14667 -0.35199,0.352 h 0.0293 l -0.088,0.0587 q -1.37865,0.87998 -2.69863,2.08264 -1.29065,1.20265 -2.52264,2.5813 -1.20265,1.34931 -2.3173,2.81596 -1.11465,1.46665 -2.08264,2.90396 0.46933,1.78931 0.90932,3.60796 0.44,1.84797 0.79199,3.78395 0.352,1.96531 0.55733,4.04795 0.23466,2.08264 0.23466,4.37061 0,1.29065 -0.176,2.69863 -0.17599,1.43731 -0.55732,2.8453 -0.38133,1.40798 -0.99732,2.6693 -0.58666,1.29065 -1.40798,2.25863 -0.79199,0.96799 -1.84798,1.52532 -1.02665,0.58666 -2.3173,0.58666 -1.43732,0 -2.52264,-0.87999 -1.05599,-0.85066 -1.75998,-2.4053 -0.32266,-0.82133 -0.46932,-1.84798 -0.14667,-1.02665 -0.20533,-1.93598 0,-1.78931 0.35199,-3.69595 0.38133,-1.90664 0.99732,-3.84262 0.64533,-1.93597 1.43732,-3.81328 0.82132,-1.87731 1.73064,-3.63729 0.90932,-1.75998 1.84798,-3.31462 0.93865,-1.55465 1.78931,-2.81597 l -0.32266,-1.14398 q -0.67466,-2.4933 -1.31999,-5.1626 -0.61599,-2.6693 -0.93865,-5.3386 -0.0587,0 -0.088,-0.0293 -0.176,0.82132 -0.46933,1.9653 -0.29333,1.11466 -0.67466,2.37597 -0.38133,1.23199 -0.85065,2.46397 -0.46933,1.23199 -0.99732,2.28797 -0.528,1.02666 -1.11466,1.73065 -0.55732,0.73332 -1.14398,0.93865 l -0.41066,0.0587 q -0.55733,0 -0.90932,-0.352 -0.32267,-0.35199 -0.528,-0.85065 -0.17599,-0.528 -0.26399,-1.11466 -0.0587,-0.58665 -0.088,-1.08531 0,-2.31731 0.32266,-4.57595 0.32266,-2.28797 0.82132,-4.57594 l -0.088,-0.0587 -2.61063,4.86927 q -0.61599,1.17332 -1.31998,2.28797 -0.67466,1.11465 -1.37865,2.19997 -0.20533,0.29333 -0.46933,0.67466 -0.23466,0.35199 -0.52799,0.67466 -0.29333,0.29333 -0.64533,0.52799 -0.32266,0.23466 -0.67466,0.264 -0.49866,0 -0.82132,-0.29333 -0.32266,-0.32267 -0.52799,-0.76266 -0.23467,-0.46933 -0.32266,-1.02665 -0.088,-0.55733 -0.088,-1.08532 0,-1.11466 0.26399,-2.52264 0.264,-1.43731 0.70399,-2.87463 0.44,-1.46665 1.02666,-2.84529 0.61599,-1.37865 1.29065,-2.46397 0.67466,-1.08532 1.37865,-1.73065 0.73332,-0.67466 1.43731,-0.67466 0.29333,0 0.64533,0.176 0.35199,0.14667 0.67466,0.44 0.32266,0.29333 0.52799,0.70399 0.23466,0.38133 0.23466,0.85065 l -0.0587,0.088 z m 3.81328,36.0502 q 0.0293,1.11466 0.29333,2.08264 0.264,0.96799 0.70399,1.67198 0.46933,0.70399 1.08532,1.11466 0.61599,0.43999 1.40798,0.46932 1.05599,0 1.90664,-0.52799 0.85066,-0.49866 1.49599,-1.34932 0.64532,-0.85065 1.08532,-1.9653 0.46932,-1.11466 0.73332,-2.28797 0.29333,-1.17332 0.41066,-2.34664 0.14667,-1.14399 0.14667,-2.11197 0,-3.72529 -0.64533,-7.27458 -0.64532,-3.54929 -1.52531,-6.92258 -1.08532,1.73065 -2.34664,4.04795 -1.23198,2.34664 -2.28797,4.89861 -1.05599,2.5813 -1.75998,5.22126 -0.70399,2.63997 -0.70399,4.95727 z"
         style="font-family:'Stay Classy SLDT';-inkscape-font-specification:'Stay Classy SLDT';fill:#ffffff"
         id="path208" />
    </g>
  </g>
</svg>
