<?xml version="1.0" encoding="UTF-8" standalone="no"?>
<!-- Created with Inkscape (http://www.inkscape.org/) -->

<svg
   width="125.55142mm"
   height="125.86469mm"
   viewBox="0 0 125.55142 125.86469"
   version="1.1"
   id="svg5"
   inkscape:version="1.2.2 (1:1.2.2+202212051552+b0a8486541)"
   sodipodi:docname="icon-links.svg"
   xml:space="preserve"
   xmlns:inkscape="http://www.inkscape.org/namespaces/inkscape"
   xmlns:sodipodi="http://sodipodi.sourceforge.net/DTD/sodipodi-0.dtd"
   xmlns="http://www.w3.org/2000/svg"
   xmlns:svg="http://www.w3.org/2000/svg"><sodipodi:namedview
     id="namedview7"
     pagecolor="#ffffff"
     bordercolor="#000000"
     borderopacity="0.25"
     inkscape:showpageshadow="2"
     inkscape:pageopacity="0.0"
     inkscape:pagecheckerboard="0"
     inkscape:deskcolor="#d1d1d1"
     inkscape:document-units="mm"
     showgrid="false"
     inkscape:zoom="0.5"
     inkscape:cx="508"
     inkscape:cy="573"
     inkscape:window-width="1846"
     inkscape:window-height="1016"
     inkscape:window-x="0"
     inkscape:window-y="0"
     inkscape:window-maximized="1"
     inkscape:current-layer="layer1" /><defs
     id="defs2" /><g
     inkscape:label="Layer 1"
     inkscape:groupmode="layer"
     id="layer1"
     transform="translate(-433.03446,-899.26835)"><path
       style="fill:#b3b3b3;stroke-width:0.492508"
       d="m 487.96335,1024.6826 c -23.39928,-2.7134 -44.42008,-20.0284 -51.94843,-42.79027 -2.26078,-6.83546 -2.96791,-11.50961 -2.98036,-19.70034 -0.0168,-11.00952 1.70357,-18.36673 6.62176,-28.31922 11.26891,-22.80384 36.56629,-36.8223 61.92544,-34.31576 28.06761,2.77424 50.17653,22.80039 56.09972,50.8148 1.21066,5.72596 1.20472,17.81118 -0.0112,23.64038 -2.76463,13.24921 -8.89972,24.43912 -18.35549,33.47891 -13.94491,13.3314 -32.13194,19.4201 -51.35105,17.1915 z m 3.71374,-34.75944 c -0.57672,-0.57672 -16.01594,2.15196 -17.64946,3.11928 -0.18867,0.11169 0.30266,1.6423 1.09185,3.40126 3.38663,7.5482 8.66471,14.7664 13.67095,18.6961 l 2.81804,2.2121 0.13105,-13.6176 c 0.072,-7.48974 0.0439,-13.70472 -0.0624,-13.81114 z m 15.29287,21.28024 c 1.47055,-1.6216 3.49163,-4.1703 4.49131,-5.6639 2.43525,-3.6384 6.54838,-11.97822 6.10897,-12.38652 -0.88149,-0.81906 -14.10587,-3.38053 -17.45309,-3.38053 -0.21027,0 -0.3823,6.21938 -0.3823,13.82085 v 13.8208 l 2.28068,-1.6312 c 1.25439,-0.8972 3.48387,-2.958 4.95443,-4.5795 z m -33.15182,-1.0397 c -1.91154,-2.838 -6.49297,-11.48477 -7.18472,-13.56003 -0.20664,-0.6199 -5.97538,2.18895 -8.26926,4.02633 l -1.23127,0.9863 1.97004,1.7622 c 3.40708,3.0476 7.86546,6.0279 12.38116,8.2764 2.39859,1.1943 4.42022,2.1123 4.4925,2.04 0.0722,-0.072 -0.89903,-1.6613 -2.15845,-3.5312 z m 50.16293,-0.5527 c 3.24452,-1.8986 10.22935,-7.3331 10.22935,-7.9588 0,-1.0742 -8.95692,-5.94057 -9.26008,-5.03109 -0.68577,2.05735 -5.2738,10.71409 -7.17214,13.53249 -1.25569,1.8643 -2.28308,3.4589 -2.28308,3.5435 0,0.2918 5.6714,-2.4391 8.48595,-4.0861 z m -63.23539,-19.39163 c 2.81827,-1.46913 3.09352,-1.74822 2.84381,-2.88364 -1.55007,-7.04804 -2.22857,-10.90316 -2.49099,-14.15319 -0.17088,-2.11705 -0.42287,-4.56947 -0.55987,-5.44982 l -0.24906,-1.60066 h -9.81844 -9.81841 l 0.28478,2.33941 c 1.09608,9.00366 5.01407,19.18938 9.8374,25.57452 l 1.18199,1.56473 2.83426,-1.88239 c 1.55883,-1.03532 4.23838,-2.61435 5.95453,-3.50896 z m 82.80472,-0.41663 c 3.54627,-6.07204 6.22275,-14.1114 7.10167,-21.33127 l 0.28478,-2.33941 h -9.81841 -9.81843 l -0.24907,1.60066 c -0.137,0.88035 -0.38893,3.33277 -0.55986,5.44982 -0.26262,3.25228 -0.93618,7.07899 -2.49319,14.16419 -0.25295,1.15104 0.009,1.41621 2.84978,2.8727 1.72067,0.88251 4.34474,2.44348 5.83129,3.4688 l 2.7028,1.86423 1.09044,-1.17311 c 0.59974,-0.64519 1.98492,-2.70468 3.0782,-4.57661 z m -67.07228,-5.47346 c 1.97174,-0.50955 5.5178,-1.16923 7.88014,-1.46598 2.36233,-0.29675 5.01545,-0.64667 5.8958,-0.77758 l 1.60066,-0.23803 v -7.8578 -7.85783 h -11.82019 -11.8202 l 0.009,1.10814 c 0.0186,2.10487 1.39599,11.4625 2.21672,15.05605 0.68248,2.98827 0.96276,3.54994 1.63794,3.28234 0.448,-0.17758 2.4278,-0.73977 4.39952,-1.24931 z m 44.67865,-2.06756 c 0.81438,-3.56565 2.19068,-12.92521 2.20887,-15.02152 l 0.009,-1.10814 h -11.82019 -11.8202 v 7.8227 c 0,7.69608 0.0186,7.82748 1.10814,8.11966 0.60949,0.16325 1.78939,0.29999 2.62202,0.30369 2.35734,0.0112 10.50553,1.50537 13.50763,2.47817 1.48983,0.48276 2.85725,0.89988 3.03871,0.92694 0.18149,0.027 0.69689,-1.55764 1.14542,-3.5215 z m -60.61814,-25.61044 c 0.137,-0.88036 0.38893,-3.33278 0.55987,-5.44982 0.26242,-3.25005 0.9409,-7.10508 2.49099,-14.15323 0.25254,-1.14829 -0.0363,-1.41978 -3.33631,-3.13631 -1.98705,-1.03357 -4.65843,-2.62327 -5.93642,-3.53268 l -2.32363,-1.65347 -1.20011,1.58849 c -4.84148,6.40826 -8.75765,16.57994 -9.85552,25.59826 l -0.28478,2.33942 h 9.81841 9.81844 z m 31.31609,-6.25717 v -7.85781 l -1.60066,-0.23802 c -0.88035,-0.13086 -3.53347,-0.48083 -5.8958,-0.77758 -3.87483,-0.48673 -10.16805,-1.87832 -12.27966,-2.7153 -0.67518,-0.2676 -0.95546,0.29407 -1.63794,3.28235 -0.82073,3.59355 -2.19845,12.95118 -2.21673,15.05605 l -0.009,1.10814 h 11.82019 11.8202 z m 31.51092,6.74969 c -0.0186,-2.10487 -1.396,-11.4625 -2.21673,-15.05605 -0.68248,-2.98828 -0.96276,-3.54995 -1.63794,-3.28235 -2.11161,0.83698 -8.40483,2.22857 -12.27966,2.7153 -2.36233,0.29675 -5.01545,0.64666 -5.8958,0.77758 l -1.60066,0.23802 v 7.85781 7.85783 h 11.8202 11.82019 l -0.009,-1.10814 z m 27.28643,-1.23128 c -1.09786,-9.01832 -5.01404,-19.19 -9.85551,-25.59826 l -1.20012,-1.58849 -2.32362,1.65347 c -1.278,0.90941 -3.94938,2.49911 -5.93642,3.53268 -3.30004,1.71653 -3.58886,1.98802 -3.33631,3.13631 1.55006,7.04815 2.22856,10.90318 2.49099,14.15323 0.17088,2.11704 0.42286,4.56946 0.55986,5.44982 l 0.24907,1.60066 h 9.81843 9.81841 z m -58.79735,-35.1218 v -13.82085 l -2.28068,1.63126 c -2.75165,1.96809 -6.96563,6.53795 -9.44573,10.24337 -2.43524,3.63844 -6.54839,11.97821 -6.10898,12.38652 0.90718,0.84294 12.06334,3.05602 16.72725,3.31822 l 1.10814,0.0624 z m 12.81812,13.31307 c 4.31637,-0.52515 12.27983,-2.29892 12.8974,-2.87277 0.43941,-0.40831 -3.67372,-8.74808 -6.10897,-12.38652 -2.48011,-3.70542 -6.69409,-8.27528 -9.44574,-10.24337 l -2.28068,-1.63126 v 13.82085 c 0,7.60144 0.172,13.82082 0.3823,13.82082 0.21027,0 2.26034,-0.22849 4.55569,-0.50775 z m -35.99077,-10.64245 c 1.20535,-2.60251 3.36506,-6.51558 4.79936,-8.6957 1.43432,-2.18011 2.55292,-4.01878 2.48579,-4.0859 -0.0672,-0.0672 -2.08454,0.85511 -4.48313,2.0494 -4.5157,2.24844 -8.97408,5.22871 -12.38116,8.27635 l -1.97004,1.76221 1.23127,0.98491 c 1.17273,0.93808 7.36178,4.42068 7.88014,4.43416 0.13552,0.004 1.23243,-2.12293 2.43777,-4.72543 z m 60.03875,3.01323 c 1.80032,-0.9539 3.8274,-2.17817 4.50459,-2.72061 l 1.23128,-0.98626 -1.97005,-1.76221 c -3.38219,-3.02538 -7.89822,-6.05367 -12.38969,-8.30811 -2.37742,-1.19332 -4.38425,-2.108 -4.45962,-2.03263 -0.0754,0.0754 1.03649,1.92078 2.47081,4.10089 1.43431,2.18012 3.59401,6.09319 4.79936,8.6957 1.20534,2.6025 2.26992,4.73539 2.36575,4.73973 0.0959,0.004 1.64723,-0.7726 3.44757,-1.7265 z"
       id="path9079"
       inkscape:export-filename="icon-links.png"
       inkscape:export-xdpi="96"
       inkscape:export-ydpi="96" /></g></svg>
